<svg width="200" height="200" viewBox="0 0 200 200" fill="none" xmlns="http://www.w3.org/2000/svg">
<path d="M195.962 40.049C198.17 39.9948 199.962 38.2091 199.962 36V4C199.962 1.79086 198.169 -0.00411408 195.96 0.0392299C148.328 0.973959 104.778 18.5605 70.8908 47.2176C69.6167 48.2951 69.167 50.0616 69.7824 51.6125C73.9998 62.2407 79.4811 72.23 86.0408 81.3947C87.4331 83.3399 90.2197 83.5416 91.9846 81.9268C119.529 56.7237 155.921 41.0315 195.962 40.049Z" fill="#FAFAFA"/>
<path d="M40.0106 3.99996C39.9564 1.79148 38.1707 0 35.9615 0H3.96155C1.75241 0 -0.0425697 1.79215 0.000768625 4.00087C0.616866 35.3999 8.46898 65.0253 21.9584 91.2783C23.4745 94.2289 25.0618 97.1369 26.718 100C30.0614 105.78 33.6858 111.377 37.5724 116.772C38.5365 118.111 37.5821 119.929 35.9656 119.601C31.1361 118.621 26.9383 115.902 24.055 112.125C23.0544 110.815 20.8885 110.82 20.1645 112.301C7.77417 137.656 0.589029 166.019 0.000768755 195.999C-0.0425697 198.208 1.75241 200 3.96155 200H35.9615C38.1707 200 39.9564 198.209 40.0106 196C40.4806 176.845 44.3171 158.525 50.9509 141.609C52.0031 138.926 55.4852 138.329 57.5082 140.382C92.9095 176.302 141.795 198.897 195.959 199.961C198.167 200.004 199.962 198.209 199.962 196V164C199.962 161.791 198.168 160.005 195.96 159.951C147.059 158.751 103.6 135.61 75.0541 100C66.3085 89.0901 58.9625 77.0099 53.2887 64.0315C45.2204 45.576 40.5333 25.3044 40.0106 3.99996Z" fill="#FAFAFA"/>
</svg>
