<svg width="65" height="65" viewBox="0 0 65 65" fill="none" xmlns="http://www.w3.org/2000/svg">
<path d="M14.1106 46.6106L11.0851 41.3703L9.51902 38.6577L7.83837 35.7468L5.96385 32.5L3.78093 28.7191L0 32.5L3.78093 36.2809L6.86805 39.3681L9.51902 42.019L11.8958 44.3958L14.1106 46.6106Z" fill="#EEEEEE"/>
<path d="M23.6297 53.9149L18.3894 50.8894L15.6768 49.3232L12.7658 47.6426L9.51902 45.7681L5.73809 43.5851L4.35417 48.75L9.51902 50.1339L13.7361 51.2639L17.3574 52.2342L20.6042 53.1042L23.6297 53.9149Z" fill="#EEEEEE"/>
<path d="M35.5255 55.481H29.4745H26.3423H22.981H19.2319H14.8661L16.25 60.6458L21.4148 59.2619L25.6319 58.1319L29.2532 57.1616L32.5 56.2917L35.5255 55.481Z" fill="#EEEEEE"/>
<path d="M46.6107 50.8893L41.3703 53.9148L38.6577 55.481L35.7467 57.1616L32.5 59.0361L28.7191 61.2191L32.5 65L36.2809 61.2191L39.3681 58.1319L42.019 55.481L44.3958 53.1042L46.6107 50.8893Z" fill="#EEEEEE"/>
<path d="M53.9149 41.3703L50.8893 46.6107L49.3232 49.3232L47.6426 52.2342L45.7681 55.481L43.5851 59.2619L48.75 60.6458L50.1339 55.481L51.2639 51.2639L52.2342 47.6426L53.1042 44.3958L53.9149 41.3703Z" fill="#EEEEEE"/>
<path d="M55.481 29.4745V35.5255V38.6577V42.019V45.7681V50.1339L60.6458 48.75L59.2619 43.5851L58.1319 39.3681L57.1616 35.7468L56.2916 32.5L55.481 29.4745Z" fill="#EEEEEE"/>
<path d="M50.8893 18.3893L53.9149 23.6297L55.481 26.3423L57.1616 29.2532L59.0361 32.5L61.2191 36.2809L65 32.5L61.2191 28.7191L58.1319 25.6319L55.481 22.981L53.1042 20.6042L50.8893 18.3893Z" fill="#EEEEEE"/>
<path d="M41.3703 11.0852L46.6107 14.1107L49.3232 15.6768L52.2342 17.3574L55.481 19.2319L59.2619 21.4149L60.6458 16.25L55.481 14.8661L51.2639 13.7361L47.6426 12.7658L44.3958 11.8958L41.3703 11.0852Z" fill="#EEEEEE"/>
<path d="M29.4745 9.51903H35.5255H38.6577H42.019H45.7681H50.1339L48.75 4.35417L43.5851 5.73809L39.3681 6.86805L35.7468 7.83838L32.5 8.70835L29.4745 9.51903Z" fill="#EEEEEE"/>
<path d="M18.3894 14.1106L23.6297 11.0851L26.3423 9.51903L29.2532 7.83838L32.5 5.96386L36.2809 3.78093L32.5 0L28.7191 3.78094L25.6319 6.86806L22.981 9.51903L20.6042 11.8958L18.3894 14.1106Z" fill="#EEEEEE"/>
<path d="M14.8661 9.51903L13.7361 13.7361L12.7658 17.3574L11.8958 20.6042L11.0851 23.6297L14.1106 18.3894L15.6768 15.6768L17.3574 12.7658L19.2319 9.51903L21.4148 5.7381L16.25 4.35418L14.8661 9.51903Z" fill="#EEEEEE"/>
<path d="M9.51902 14.8661L4.35417 16.25L5.73809 21.4149L6.86805 25.6319L7.83838 29.2532L8.70834 32.5L9.51902 35.5255V29.4745V26.3423V22.981V19.2319V14.8661Z" fill="#EEEEEE"/>
</svg>
