<svg width="261" height="250" viewBox="0 0 261 250" fill="none" xmlns="http://www.w3.org/2000/svg">
<path d="M84.9254 42.749C84.3479 42.1714 84.0234 41.388 84.0234 40.5712V3.08592C84.0234 0.34216 87.3407 -1.03191 89.2808 0.908216L128.042 39.6692C129.245 40.8719 131.195 40.8719 132.397 39.6692L171.158 0.90821C173.098 -1.03192 176.416 0.342159 176.416 3.08592V40.5712C176.416 41.388 176.091 42.1714 175.514 42.749L132.397 85.8654C131.195 87.0681 129.245 87.0681 128.042 85.8654L84.9254 42.749Z" fill="white"/>
<path d="M178.804 44.6487C179.015 43.8597 179.531 43.187 180.239 42.7786L212.702 24.036C215.078 22.6641 217.927 24.8499 217.217 27.5002L203.029 80.4487C202.589 82.0917 203.564 83.7804 205.207 84.2206L258.155 98.4081C260.806 99.1183 261.274 102.678 258.898 104.05L226.435 122.793C225.728 123.201 224.887 123.312 224.098 123.1L165.2 107.319C163.557 106.878 162.582 105.19 163.022 103.547L178.804 44.6487Z" fill="white"/>
<path d="M258.155 151.592C260.806 150.882 261.274 147.322 258.898 145.95L226.435 127.207C225.728 126.799 224.887 126.688 224.098 126.9L165.2 142.681C163.557 143.122 162.582 144.81 163.022 146.453L178.804 205.351C179.015 206.14 179.531 206.813 180.239 207.221L212.702 225.964C215.078 227.336 217.927 225.15 217.217 222.5L203.029 169.551C202.589 167.908 203.564 166.22 205.207 165.78L258.155 151.592Z" fill="white"/>
<path d="M175.514 207.251C176.091 207.829 176.416 208.612 176.416 209.429V246.914C176.416 249.658 173.098 251.032 171.158 249.092L132.397 210.331C131.194 209.128 129.244 209.128 128.042 210.331L89.2807 249.092C87.3406 251.032 84.0233 249.658 84.0233 246.914V209.429C84.0233 208.612 84.3477 207.829 84.9253 207.251L128.042 164.135C129.244 162.932 131.194 162.932 132.397 164.135L175.514 207.251Z" fill="white"/>
<path d="M43.2222 222.5C42.5121 225.15 45.3607 227.336 47.7369 225.964L80.2002 207.221C80.9075 206.813 81.4237 206.14 81.6351 205.351L97.4168 146.453C97.857 144.81 96.882 143.122 95.2391 142.681L36.341 126.9C35.552 126.688 34.7114 126.799 34.004 127.207L1.54075 145.95C-0.835414 147.322 -0.366734 150.882 2.28353 151.592L55.232 165.779C56.875 166.22 57.85 167.908 57.4097 169.551L43.2222 222.5Z" fill="white"/>
<path d="M36.341 123.1C35.5521 123.312 34.7114 123.201 34.0041 122.793L1.54081 104.05C-0.835353 102.678 -0.366673 99.1181 2.28359 98.408L55.2321 84.2205C56.875 83.7803 57.85 82.0915 57.4098 80.4486L43.2223 27.5001C42.5122 24.8498 45.3608 22.664 47.737 24.0359L80.2002 42.7785C80.9076 43.1869 81.4237 43.8596 81.6351 44.6486L97.4168 103.547C97.8571 105.19 96.8821 106.878 95.2391 107.319L36.341 123.1Z" fill="white"/>
</svg>
