<svg width="105" height="100" viewBox="0 0 105 100" fill="none" xmlns="http://www.w3.org/2000/svg">
<path d="M34.5247 17.0996C34.2937 16.8686 34.1639 16.5552 34.1639 16.2285V1.23437C34.1639 0.136864 35.4909 -0.412766 36.2669 0.363286L51.7713 15.8677C52.2524 16.3488 53.0324 16.3488 53.5135 15.8677L69.0179 0.363284C69.7939 -0.412768 71.1208 0.136864 71.1208 1.23437V16.2285C71.1208 16.5552 70.9911 16.8686 70.76 17.0996L53.5135 34.3461C53.0324 34.8272 52.2524 34.8272 51.7713 34.3461L34.5247 17.0996Z" fill="#EEEEEE"/>
<path d="M72.0761 17.8595C72.1607 17.5439 72.3672 17.2748 72.6501 17.1115L85.6354 9.61439C86.5859 9.06564 87.7253 9.93998 87.4413 11.0001L81.7663 32.1795C81.5902 32.8367 81.9802 33.5122 82.6373 33.6882L103.817 39.3632C104.877 39.6473 105.064 41.0713 104.114 41.62L91.1286 49.1171C90.8456 49.2805 90.5094 49.3247 90.1938 49.2402L66.6345 42.9275C65.9774 42.7514 65.5874 42.0759 65.7634 41.4187L72.0761 17.8595Z" fill="#EEEEEE"/>
<path d="M103.817 60.6368C104.877 60.3527 105.064 58.9288 104.114 58.38L91.1285 50.883C90.8456 50.7196 90.5093 50.6753 90.1937 50.7599L66.6345 57.0726C65.9773 57.2487 65.5873 57.9242 65.7634 58.5813L72.0761 82.1406C72.1607 82.4562 72.3671 82.7252 72.6501 82.8886L85.6354 90.3857C86.5858 90.9344 87.7253 90.0601 87.4412 89L81.7662 67.8206C81.5901 67.1634 81.9801 66.4879 82.6373 66.3118L103.817 60.6368Z" fill="#EEEEEE"/>
<path d="M70.76 82.9004C70.991 83.1314 71.1208 83.4448 71.1208 83.7715V98.7656C71.1208 99.8631 69.7939 100.413 69.0178 99.6367L53.5134 84.1323C53.0323 83.6512 52.2523 83.6512 51.7713 84.1323L36.2669 99.6367C35.4908 100.413 34.1639 99.8631 34.1639 98.7656V83.7715C34.1639 83.4448 34.2937 83.1314 34.5247 82.9004L51.7713 65.6539C52.2523 65.1728 53.0323 65.1728 53.5134 65.6539L70.76 82.9004Z" fill="#EEEEEE"/>
<path d="M17.8435 88.9999C17.5594 90.06 18.6989 90.9344 19.6493 90.3856L32.6346 82.8885C32.9176 82.7252 33.124 82.4561 33.2086 82.1405L39.5213 58.5813C39.6974 57.9241 39.3074 57.2486 38.6502 57.0725L15.091 50.7598C14.7754 50.6753 14.4391 50.7196 14.1562 50.8829L1.17087 58.38C0.2204 58.9287 0.407872 60.3527 1.46798 60.6368L22.6474 66.3118C23.3046 66.4878 23.6946 67.1633 23.5185 67.8205L17.8435 88.9999Z" fill="#EEEEEE"/>
<path d="M15.091 49.2401C14.7754 49.3247 14.4391 49.2804 14.1562 49.117L1.17089 41.62C0.220424 41.0712 0.407896 39.6473 1.468 39.3632L22.6474 33.6882C23.3046 33.5121 23.6946 32.8366 23.5185 32.1794L17.8435 11C17.5594 9.93993 18.6989 9.06559 19.6494 9.61435L32.6347 17.1114C32.9176 17.2748 33.1241 17.5438 33.2086 17.8594L39.5213 41.4187C39.6974 42.0758 39.3074 42.7513 38.6502 42.9274L15.091 49.2401Z" fill="#EEEEEE"/>
</svg>
