<svg width="250" height="250" viewBox="0 0 250 250" fill="none" xmlns="http://www.w3.org/2000/svg">
<path d="M54.2717 179.272L42.6352 159.117L36.6116 148.684L30.1476 137.488L22.9379 125L14.542 110.458L0 125L14.542 139.542L26.4156 151.416L36.6116 161.612L45.7531 170.753L54.2717 179.272Z" fill="white"/>
<path d="M90.8834 207.365L70.7283 195.728L60.2952 189.705L49.0992 183.241L36.6116 176.031L22.0696 167.635L16.7468 187.5L36.6116 192.823L52.8312 197.169L66.7593 200.901L79.2468 204.247L90.8834 207.365Z" fill="white"/>
<path d="M136.636 213.388H113.363H101.316H88.3884H73.9689H57.1772L62.5 233.253L82.3648 227.93L98.5844 223.584L112.512 219.852L125 216.506L136.636 213.388Z" fill="white"/>
<path d="M179.272 195.728L159.117 207.365L148.684 213.388L137.488 219.852L125 227.062L110.458 235.458L125 250L139.542 235.458L151.416 223.584L161.612 213.388L170.753 204.247L179.272 195.728Z" fill="white"/>
<path d="M207.365 159.117L195.728 179.272L189.705 189.705L183.241 200.901L176.031 213.388L167.635 227.93L187.5 233.253L192.823 213.388L197.169 197.169L200.901 183.241L204.247 170.753L207.365 159.117Z" fill="white"/>
<path d="M213.388 113.363V136.637V148.684V161.612V176.031V192.823L233.253 187.5L227.93 167.635L223.584 151.416L219.852 137.488L216.506 125L213.388 113.363Z" fill="white"/>
<path d="M195.728 70.7282L207.365 90.8834L213.388 101.316L219.852 112.512L227.062 125L235.458 139.542L250 125L235.458 110.458L223.584 98.5844L213.388 88.3883L204.247 79.2468L195.728 70.7282Z" fill="white"/>
<path d="M159.117 42.6352L179.272 54.2718L189.705 60.2952L200.901 66.7593L213.388 73.969L227.93 82.3648L233.253 62.5L213.388 57.1772L197.169 52.8312L183.241 49.0992L170.753 45.7532L159.117 42.6352Z" fill="white"/>
<path d="M113.363 36.6116H136.636H148.684H161.612H176.031H192.823L187.5 16.7468L167.635 22.0696L151.416 26.4156L137.488 30.1476L125 33.4936L113.363 36.6116Z" fill="white"/>
<path d="M70.7283 54.2717L90.8834 42.6351L101.316 36.6116L112.512 30.1476L125 22.9379L139.542 14.5421L125 0L110.458 14.5421L98.5844 26.4156L88.3884 36.6116L79.2468 45.7531L70.7283 54.2717Z" fill="white"/>
<path d="M57.1772 36.6116L52.8312 52.8312L49.0992 66.7593L45.7531 79.2468L42.6352 90.8833L54.2716 70.7284L60.2952 60.2952L66.7593 49.0992L73.9689 36.6116L82.3648 22.0696L62.5 16.7468L57.1772 36.6116Z" fill="white"/>
<path d="M36.6116 57.1772L16.7468 62.5L22.0696 82.3648L26.4156 98.5844L30.1476 112.512L33.4936 125L36.6116 136.637V113.363V101.316V88.3884V73.969V57.1772Z" fill="white"/>
</svg>
