<svg width="57" height="65" viewBox="0 0 57 65" fill="none" xmlns="http://www.w3.org/2000/svg">
<path d="M14.0729 24.375L9.38195 27.0833V32.5V37.9167V43.3333L14.0729 46.0417L18.7639 48.75V54.1667L14.0729 51.4583L9.38195 48.75L4.69098 46.0417L4.69098 40.625V35.2083V29.7917V24.375V18.9583L0 16.25V21.6667V27.0833V32.5V37.9167L3.57893e-06 43.3333L0 48.75L4.69098 51.4583L9.38195 54.1667L14.0729 56.875L18.7639 59.5833L23.4549 62.2917V56.875V51.4583L23.4549 46.0417L18.7639 43.3333L14.0729 40.625V35.2083V29.7917L18.7639 27.0833L14.0729 24.375Z" fill="#b3b3b3"/>
<path d="M42.2188 24.375L42.2188 18.9583L37.5278 16.25L32.8368 13.5417L28.1459 10.8333L23.4549 13.5417L18.7639 16.25L14.0729 13.5417L18.7639 10.8333L23.4549 8.125L28.1459 5.41667L32.8368 8.125L37.5278 10.8333L42.2188 13.5417L46.9098 16.25L51.6007 18.9583L56.2917 16.25L51.6007 13.5417L46.9098 10.8333L42.2188 8.125L37.5278 5.41667L32.8368 2.70834L28.1458 0L23.4549 2.70834L18.7639 5.41667L14.0729 8.125L9.38195 10.8333L4.69098 13.5417L9.38195 16.25L14.0729 18.9583L18.7639 21.6667L23.4549 18.9583L28.1459 16.25L32.8368 18.9583L37.5278 21.6667V27.0833L42.2188 24.375Z" fill="#b3b3b3"/>
<path d="M28.1459 43.3333V48.75L32.8368 51.4583L37.5278 48.75L42.2188 46.0417L46.9098 43.3333L46.9098 37.9167V32.5L51.6007 29.7917V35.2083V40.625V46.0417L46.9098 48.75L42.2188 51.4583L37.5278 54.1667L32.8368 56.875L28.1459 59.5833L28.1458 65L32.8368 62.2917L37.5278 59.5833L42.2188 56.875L46.9098 54.1667L51.6007 51.4583L56.2917 48.75V43.3333V37.9167V32.5V27.0833V21.6667L51.6007 24.375L46.9098 27.0833L42.2188 29.7917V35.2083V40.625L37.5278 43.3333L32.8368 46.0417L28.1459 43.3333Z" fill="#b3b3b3"/>
<path fill-rule="evenodd" clip-rule="evenodd" d="M28.1459 43.3333L32.8368 40.625L37.5278 37.9167V32.5V27.0833L32.8368 24.375L28.1459 21.6667L23.4549 24.375L18.7639 27.0833V32.5V37.9167L23.4549 40.625L28.1459 43.3333ZM32.8368 35.2083L28.1459 37.9167L23.4549 35.2083V29.7917L28.1459 27.0833L32.8368 29.7917V35.2083Z" fill="#b3b3b3"/>
</svg>
