<svg width="68" height="65" viewBox="0 0 68 65" fill="none" xmlns="http://www.w3.org/2000/svg">
<path d="M22.0806 11.1147C21.9304 10.9646 21.8461 10.7609 21.8461 10.5485V0.802339C21.8461 0.0889616 22.7086 -0.268298 23.213 0.236136L33.2909 10.314C33.6036 10.6267 34.1106 10.6267 34.4233 10.314L44.5011 0.236135C45.0056 -0.268299 45.8681 0.0889614 45.8681 0.802339V10.5485C45.8681 10.7609 45.7837 10.9646 45.6336 11.1147L34.4233 22.325C34.1106 22.6377 33.6036 22.6377 33.2909 22.325L22.0806 11.1147Z" fill="url(#paint0_linear_1364_2)"/>
<path d="M46.489 11.6087C46.544 11.4035 46.6782 11.2286 46.8621 11.1224L55.3025 6.24935C55.9203 5.89266 56.661 6.46098 56.4764 7.15005L52.7876 20.9167C52.6731 21.3438 52.9266 21.7829 53.3538 21.8974L67.1204 25.5861C67.8095 25.7707 67.9313 26.6963 67.3135 27.053L58.8731 31.9261C58.6892 32.0323 58.4706 32.0611 58.2655 32.0061L42.952 27.9029C42.5248 27.7884 42.2713 27.3493 42.3858 26.9222L46.489 11.6087Z" fill="url(#paint1_linear_1364_2)"/>
<path d="M67.1204 39.4139C67.8095 39.2293 67.9313 38.3037 67.3135 37.947L58.8731 33.0739C58.6892 32.9677 58.4706 32.939 58.2655 32.9939L42.952 37.0972C42.5248 37.2116 42.2713 37.6507 42.3858 38.0779L46.489 53.3914C46.544 53.5965 46.6782 53.7714 46.8621 53.8776L55.3025 58.7507C55.9203 59.1074 56.661 58.539 56.4763 57.85L52.7876 44.0834C52.6731 43.6562 52.9266 43.2171 53.3538 43.1027L67.1204 39.4139Z" fill="url(#paint2_linear_1364_2)"/>
<path d="M45.6335 53.8853C45.7837 54.0354 45.8681 54.2391 45.8681 54.4515V64.1977C45.8681 64.911 45.0056 65.2683 44.5011 64.7639L34.4233 54.686C34.1106 54.3733 33.6036 54.3733 33.2908 54.686L23.213 64.7639C22.7086 65.2683 21.8461 64.911 21.8461 64.1977V54.4515C21.8461 54.2391 21.9304 54.0354 22.0806 53.8853L33.2908 42.675C33.6036 42.3623 34.1106 42.3623 34.4233 42.675L45.6335 53.8853Z" fill="url(#paint3_linear_1364_2)"/>
<path d="M11.2378 57.8499C11.0531 58.539 11.7938 59.1073 12.4116 58.7506L20.852 53.8776C21.036 53.7714 21.1702 53.5965 21.2251 53.3913L25.3284 38.0778C25.4428 37.6507 25.1893 37.2116 24.7622 37.0971L9.44865 32.9939C9.24352 32.9389 9.02496 32.9677 8.84104 33.0739L0.400595 37.947C-0.217208 38.3037 -0.0953509 39.2293 0.593719 39.4139L14.3603 43.1026C14.7875 43.2171 15.041 43.6562 14.9265 44.0833L11.2378 57.8499Z" fill="url(#paint4_linear_1364_2)"/>
<path d="M9.44867 32.0061C9.24354 32.061 9.02497 32.0323 8.84106 31.9261L0.400611 27.053C-0.217192 26.6963 -0.0953351 25.7707 0.593734 25.5861L14.3603 21.8973C14.7875 21.7829 15.041 21.3438 14.9265 20.9166L11.2378 7.15002C11.0532 6.46096 11.7938 5.89264 12.4116 6.24932L20.8521 11.1224C21.036 11.2286 21.1702 11.4035 21.2251 11.6086L25.3284 26.9221C25.4428 27.3493 25.1893 27.7884 24.7622 27.9028L9.44867 32.0061Z" fill="url(#paint5_linear_1364_2)"/>
<defs>
<linearGradient id="paint0_linear_1364_2" x1="33.8571" y1="0" x2="33.8571" y2="65" gradientUnits="userSpaceOnUse">
<stop stop-color="#B3B3B3"/>
<stop offset="1" stop-color="#282828"/>
</linearGradient>
<linearGradient id="paint1_linear_1364_2" x1="33.8571" y1="0" x2="33.8571" y2="65" gradientUnits="userSpaceOnUse">
<stop stop-color="#B3B3B3"/>
<stop offset="1" stop-color="#282828"/>
</linearGradient>
<linearGradient id="paint2_linear_1364_2" x1="33.8571" y1="0" x2="33.8571" y2="65" gradientUnits="userSpaceOnUse">
<stop stop-color="#B3B3B3"/>
<stop offset="1" stop-color="#282828"/>
</linearGradient>
<linearGradient id="paint3_linear_1364_2" x1="33.8571" y1="0" x2="33.8571" y2="65" gradientUnits="userSpaceOnUse">
<stop stop-color="#B3B3B3"/>
<stop offset="1" stop-color="#282828"/>
</linearGradient>
<linearGradient id="paint4_linear_1364_2" x1="33.8571" y1="0" x2="33.8571" y2="65" gradientUnits="userSpaceOnUse">
<stop stop-color="#B3B3B3"/>
<stop offset="1" stop-color="#282828"/>
</linearGradient>
<linearGradient id="paint5_linear_1364_2" x1="33.8571" y1="0" x2="33.8571" y2="65" gradientUnits="userSpaceOnUse">
<stop stop-color="#B3B3B3"/>
<stop offset="1" stop-color="#282828"/>
</linearGradient>
</defs>
</svg>
